<?xml version="1.0" encoding="UTF-8" standalone="no"?>
<!-- Created with Inkscape (http://www.inkscape.org/) -->

<svg
   xmlns:dc="http://purl.org/dc/elements/1.1/"
   xmlns:cc="http://creativecommons.org/ns#"
   xmlns:rdf="http://www.w3.org/1999/02/22-rdf-syntax-ns#"
   xmlns:svg="http://www.w3.org/2000/svg"
   xmlns="http://www.w3.org/2000/svg"
   xmlns:sodipodi="http://sodipodi.sourceforge.net/DTD/sodipodi-0.dtd"
   xmlns:inkscape="http://www.inkscape.org/namespaces/inkscape"
   id="svg2"
   version="1.1"
   inkscape:version="0.48.2 r9819"
   width="287.8375"
   height="286.25"
   xml:space="preserve"
   sodipodi:docname="Sognefjordlogo.eps"><metadata
     id="metadata8"><rdf:RDF><cc:Work
         rdf:about=""><dc:format>image/svg+xml</dc:format><dc:type
           rdf:resource="http://purl.org/dc/dcmitype/StillImage" /><dc:title></dc:title></cc:Work></rdf:RDF></metadata><defs
     id="defs6" /><sodipodi:namedview
     pagecolor="#ffffff"
     bordercolor="#666666"
     borderopacity="1"
     objecttolerance="10"
     gridtolerance="10"
     guidetolerance="10"
     inkscape:pageopacity="0"
     inkscape:pageshadow="2"
     inkscape:window-width="640"
     inkscape:window-height="480"
     id="namedview4"
     showgrid="false"
     inkscape:zoom="0.82445415"
     inkscape:cx="143.91875"
     inkscape:cy="143.125"
     inkscape:window-x="2382"
     inkscape:window-y="292"
     inkscape:window-maximized="0"
     inkscape:current-layer="g10" /><g
     id="g10"
     inkscape:groupmode="layer"
     inkscape:label="ink_ext_XXXXXX"
     transform="matrix(1.25,0,0,-1.25,0,286.25)"><g
       id="g12"
       transform="scale(0.1,0.1)"><path
         d="m 1750.86,2138.36 c 33.37,63.89 34.01,129.87 1.46,147.34 -6.2,3.35 -15.89,4.34 -20.65,4.18 l 0.21,0.1 c -34.58,0 -65.87,-40.74 -62.69,-117.2 0.5,-12.5 2.65,-30.06 3.15,-34.57 1.21,-10.68 -3.3,-15.92 -8.66,-18.87 l 0.03,0 -263.5,-147.05 0,0 c -16.71,-9.11 -34.16,-22.34 -50.77,-38.77 -15.22,-15.07 -31.33,-40.6 -42.76,-57.93 -12.96,-19.63 -32.14,-31.63 -57.64,-31.63 -35.12,0 -63.62,24.7 -63.62,55.16 0,8.38 -0.81,14.81 -10.17,21 -7.99,5.29 -32.07,15.72 -41.64,19.79 -7.27,3.08 -12.76,1.73 -19.2,-4.86 -3.02,-3.1 -6.61,-5.87 -16.47,-1.81 -7.2,2.96 -33.07,15.94 -41.82,18.48 -6.86,1.99 -20.46,2.79 -18.78,-20.27 2.96,-40.64 26.68,-105.37 87.9,-129.52 42.9,-16.91 109.63,-13.49 136.65,3.84 3.29,2.11 4.72,-0.36 4.31,-3.25 -0.87,-6.12 -8.63,-17.48 -14.71,-24.72 -40.25,-47.97 -171.93,-99.3 -220.33,-149.81 -10.55,-11.01 -33.863,-41.27 -29.48,-107.4 1.95,-29.34 59.44,-52.46 65.06,-26.31 7.41,34.52 11.96,63.04 27.42,87.14 19.02,29.63 108.57,106.84 126.89,120.65 1.82,1.37 3.77,1.24 4.84,0.31 1.25,-1.09 1.11,-2.56 0.74,-4.23 -22.64,-102.38 -4.29,-159.3 20.77,-208.93 20.98,-41.52 157.84,-232.97 201.49,-303.49 26.29,-42.47 42.17,-99.11 42.17,-156.16 0,-169.07 -137.47,-306.261 -301.77,-306.132 -238.513,0.187 -304.661,102.5 -426.208,111.687 -71.117,5.367 -124.531,-48.152 -126.773,-63.027 -1.352,-8.973 13.933,-24.082 26.203,-20.266 172.625,53.816 191.34,-79.289 493.098,-118.863 210.15,-27.563 530.62,80.894 529.76,450.591 -0.19,87.03 -21.9,171.11 -69.03,235.85 -51.83,71.16 -114.76,153.43 -134.6,200.2 -11.06,26.09 -16.53,48.71 -16.53,75.81 0,38.5 11.96,74.15 32.3,103.37 0,0 -2.62,-3.85 -0.11,-0.15 21.81,32.23 133.32,144.97 133.32,144.97 9.7,10.32 9.92,26.05 0.54,35.14 -9.38,9.09 -24.87,8.09 -34.57,-2.22 l -109.73,-110.37 0,0.02 c -13.86,-13.67 -36.48,-12.88 -50.44,1.74 -13.98,14.63 -14.02,37.54 -0.13,51.2 l 242.53,232.93 c 1.29,1.33 3.58,2.11 5.59,2.11 3.46,0 5.82,-2.54 6.63,-5.66 1.93,-7.37 9.86,-68.2 1.13,-91.66 0,0 -1.31,-3.13 -4.57,-3.13 -4.15,0 -4.63,3.11 -4.63,3.11 -2.56,10.95 -12.27,19.1 -23.86,19.1 -13.55,0 -24.54,-11.15 -24.54,-24.9 0,-12.51 7.26,-20.81 17.58,-23.91 19.63,-5.92 42.83,1.82 57.18,23.26 13.92,20.75 17.65,63.48 10.41,118.72 -0.7,5.45 -2.25,13.88 -2.35,15.83 -0.15,3.37 0.85,5.49 2.83,8.27 0.53,0.73 22.26,29.29 30.54,45.17 z m -277.55,-222.02 c -19.9,-22.65 -46.08,-57.86 -62.11,-71.52 -16.02,-13.66 -34.94,-17.51 -43.57,-7.76 l -6.17,6.97 c -16.28,19.63 12.24,58.67 45.84,84.62 33.61,25.96 129.13,80.74 133.97,73.37 4.85,-7.4 -47.59,-62.51 -67.96,-85.68 z m 231.5,241.28 c -6.67,2.71 -9.02,40.33 -4.95,61.85 4.78,25.28 19.87,39.38 31.73,36.31 12.82,-3.32 15.83,-27.71 7.48,-52 -8.38,-24.3 -23.35,-50.59 -34.26,-46.16"
         style="fill:#202970;fill-opacity:1;fill-rule:nonzero;stroke:none"
         id="path14" /><path
         d="m 1194.82,1393.88 c 0,-75.13 -67.16,-137.67 -147.69,-130.27 -231.208,21.19 -294.579,378.53 -437.364,431.35 -18.536,6.85 -38.414,-4.77 -48.11,-1.94 -9.484,2.77 -18.851,24.75 -10.926,31.82 7.887,7.02 34.504,20.61 79.899,18.01 164.016,-9.39 209.664,-330.08 409.601,-363.08 57.76,-9.52 113.37,15.71 125.04,64.12 1.46,6.03 3.69,9.04 9.49,9.08 3.08,0.04 5.94,-1.1 8.23,-4.96 6.86,-11.65 11.83,-34.91 11.83,-54.13"
         style="fill:#00acd7;fill-opacity:1;fill-rule:nonzero;stroke:none"
         id="path16" /><path
         d="m 1130.47,821.078 c 151.6,-9.605 274.6,98.031 274.6,227.982 0,52.31 -16.28,105.07 -53.72,139.54 -2.35,2.16 -6.37,3.79 -8.23,3.79 -5.17,0 -9.02,-3.21 -8.5,-11.84 0,0 1.03,-12.91 1.03,-19.96 0,-116.63 -79.36,-210.606 -210.2,-210.606 -218.934,0 -356.134,162.696 -552.712,175.246 -83.027,5.3 -155.722,-33.77 -175.289,-98.19 -2.484,-8.18 18.188,-20.87 26.875,-19.73 7.59,0.99 66.969,48.49 152.531,38.43 122.649,-14.42 352.875,-211.928 553.615,-224.662"
         style="fill:#1478c7;fill-opacity:1;fill-rule:nonzero;stroke:none"
         id="path18" /><path
         d="m 1078.97,1045.98 c 139.87,-5.81 200.49,104.1 194.05,224.32 -0.6,11.19 -2.75,26.38 -4.09,32.47 -1.92,8.66 -5.7,9.33 -9.5,9.33 -5.18,0 -7.76,-1.44 -9.32,-9.15 -11.25,-55.55 -68.8,-138.88 -177.92,-134.81 -267.085,9.95 -325.803,288.16 -592.932,293.16 -59.727,1.12 -109.485,-27.89 -122.086,-54.25 -4.93,-10.32 13.176,-24.25 22.308,-25.17 10.786,-1.08 42.579,17.58 100.012,4.27 181.266,-42.03 353.34,-329.96 599.478,-340.17"
         style="fill:#52b12f;fill-opacity:1;fill-rule:nonzero;stroke:none"
         id="path20" /><path
         d="m 70.4922,111.273 c -29.5703,0 -55.625,7.739 -70.4922,18.981 l 12.2695,29.574 c 9.7461,-8.125 29.125,-16.344 53.625,-16.344 30.668,0 51.0625,20.993 51.0625,47.52 0,28.648 -15.258,41.434 -45.4726,52.691 -53.5078,19.77 -64.33596,48.442 -64.33596,77.024 0,40.832 32.22266,75.636 82.26176,75.636 28.0628,0 50.0158,-9.183 64.3278,-18.976 l -11.746,-26.961 c -8.18,6.031 -24.519,15.27 -45.9764,15.27 -30.1211,0 -45.9765,-19.938 -45.9765,-43.399 0,-26.57 19.4297,-39.391 45.9765,-49.477 53.5894,-20.542 66.9064,-49.132 66.9064,-80.777 0,-41.879 -36.266,-80.762 -92.4298,-80.762"
         style="fill:#202970;fill-opacity:1;fill-rule:nonzero;stroke:none"
         id="path22" /><path
         d="m 382.5,252.812 c 0,-55.218 -9.73,-111.343 -62.328,-111.343 -51.594,0 -62.699,55.668 -62.699,111.343 0,55.575 10.086,114.461 62.699,114.461 52.598,0 62.328,-59.308 62.328,-114.461 z m 44.961,0 c 0,82.211 -32.149,142.907 -107.676,142.907 -74.16,0 -107.285,-60.696 -107.285,-142.907 0,-80.718 32.574,-142.46 107.672,-142.46 74.539,0 107.289,61.742 107.289,142.46"
         style="fill:#202970;fill-opacity:1;fill-rule:nonzero;stroke:none"
         id="path24" /><path
         d="m 641.91,150.156 c -10.742,-6.672 -25.992,-11.195 -43.277,-11.195 -52.754,0 -75.699,39.844 -75.699,110.805 0,72.523 23.964,119.031 79.668,119.031 15.867,0 29.097,-2.18 39.308,-7.777 l 0,-210.864 z m 43.496,-40.336 0,266.637 c -15.875,10.164 -43.496,19.262 -81.781,19.262 -82.719,0 -125.125,-60.211 -125.125,-147.516 0,-83.726 42.406,-135.836 108.305,-135.836 23.976,0 42.883,4.668 55.105,11.809 l 0,-19.422 c 0,-41.4063 -19.39,-72.0782 -69.875,-72.0782 -24.609,0 -48.562,7.7187 -63.816,16.3476 L 494.312,19.0117 C 512.742,7.61719 543.301,0 579.594,0 645.547,0 685.406,40.3945 685.406,109.82"
         style="fill:#202970;fill-opacity:1;fill-rule:nonzero;stroke:none"
         id="path26" /><path
         d="m 912.59,115.469 0,197.633 c 0,25.5 -10.664,53.515 -57.68,53.515 -25.512,0 -37.898,-3.515 -52.195,-9.637 l 0,-241.511 -44.887,0 0,260.988 c 24.5,11.645 56.715,19.262 100.586,19.262 76.664,0 99.137,-42.317 99.137,-81.621 l 0,-198.629 -44.961,0"
         style="fill:#202970;fill-opacity:1;fill-rule:nonzero;stroke:none"
         id="path28" /><path
         d="m 1191.9,279.953 -131.72,-20.027 c -1.03,74.566 28.64,106.691 68.39,106.691 39.39,0 63.33,-24.406 63.33,-86.664 z m 42.87,-18.996 c 1,91.977 -38.83,134.762 -104.63,134.762 -64.84,0 -110.89,-48.367 -110.89,-141.883 0,-98.027 50.56,-143.484 122.63,-143.484 37.26,0 66.36,8.66 83.24,18.812 l -11.75,29.652 c -14.29,-8.168 -36.7,-15.785 -67.91,-15.785 -49.56,0 -78.66,30.664 -83.73,92.883 l 173.04,25.043"
         style="fill:#202970;fill-opacity:1;fill-rule:nonzero;stroke:none"
         id="path30" /><path
         d="m 1386.49,339.066 0,-223.597 -79.6,0 0,223.597 -30.25,0 0,51.692 30.25,0 0,27.992 c 0,68.941 47.47,105.184 121.93,97.125 l 0,-50.578 c -26.52,1.051 -42.33,-8.25 -42.33,-39.836 l 0,-34.703 42.33,0 0,-51.692 -42.33,0"
         style="fill:#202970;fill-opacity:1;fill-rule:nonzero;stroke:none"
         id="path32" /><path
         d="m 1512.64,432.516 c -23.52,0 -42.41,16.355 -42.41,37.285 0,20.437 18.89,37.363 42.41,37.363 23.49,0 42.3,-16.926 42.3,-37.852 0,-20.441 -18.81,-36.796 -42.3,-36.796 z m -85.3,-432.04725 0,52.63285 c 29.66,9.6289 45.44,28.1289 45.44,83.2424 l 0,254.414 79.68,0 0,-244.781 c 0,-89.3403 -53.1,-142.40278 -125.12,-145.50825"
         style="fill:#202970;fill-opacity:1;fill-rule:nonzero;stroke:none"
         id="path34" /><path
         d="m 1768.44,254.352 c 0,-49.532 -7.19,-89.875 -42.4,-89.875 -34.63,0 -42.31,40.343 -42.31,89.875 0,48.957 7.14,91.894 42.31,91.894 35.21,0 42.4,-42.937 42.4,-91.894 z m 79.23,-1.028 c 0,82.184 -41.87,142.395 -122.08,142.395 -79.14,0 -121.01,-60.211 -121.01,-142.395 0,-82.238 41.87,-142.972 121.46,-142.972 79.76,0 121.63,60.734 121.63,142.972"
         style="fill:#202970;fill-opacity:1;fill-rule:nonzero;stroke:none"
         id="path36" /><path
         d="m 2030.87,338.602 c -19.29,8.171 -39.68,7.644 -53.06,1.55 l 0,-224.683 -79.65,0 0,259.847 c 30.72,14.805 73.57,23.016 147.58,19.457 l -14.87,-56.171"
         style="fill:#202970;fill-opacity:1;fill-rule:nonzero;stroke:none"
         id="path38" /><path
         d="m 2223.46,164.992 c -5.6,-3.148 -13.81,-4.074 -24.54,-4.074 -40.28,0 -58.16,34.223 -58.16,94.008 0,56.613 16.79,94.34 60.78,94.34 8.11,0 15.2,-0.922 21.92,-3.02 l 0,-181.254 z m 79.21,-34.281 0,385.625 -79.21,0 0,-127.16 c -10.23,2.508 -24.05,4.59 -40.32,4.59 -71.03,0 -121.06,-54.133 -121.06,-142.454 0,-91.957 52.04,-140.96 135.3,-140.96 47.44,0 80.21,7.183 105.29,20.359"
         style="fill:#202970;fill-opacity:1;fill-rule:nonzero;stroke:none"
         id="path40" /></g></g></svg>